<svg width="562" height="76" viewBox="0 0 562 76" fill="none" xmlns="http://www.w3.org/2000/svg">
<g clip-path="url(#clip0_2_25)">
<path d="M491.45 69.5H517.55V69.3L513.85 67.2C509.55 64.7 509.55 63 509.55 55.5V36.1L534.85 62.4C541.35 69 545.95 71 551.95 71C555.352 71.0032 558.683 70.0315 561.55 68.2V68C556.35 67.2 550.65 64.3 544.95 58.5L517.75 31.2L541.95 10.2C545.376 7.25308 549.217 4.82703 553.35 3L556.55 1.4V1.2H533.55V1.4L535.55 3.3C537.95 5.5 538.35 7 535.85 9.2L509.45 32.5V15.2C509.45 7.7 509.45 6 513.75 3.5L517.45 1.4V1.2H491.45V1.4L495.15 3.5C499.45 6 499.45 7.7 499.45 15.2V55.5C499.45 63 499.45 64.7 495.15 67.2L491.35 69.3L491.45 69.5ZM418.75 1.4L422.55 3.5C426.75 6 426.75 7.7 426.75 15.2V60.9C426.75 65.1 426.15 65.9 423.35 67.4L419.75 69.4V69.6H456.75C459.257 69.5024 461.768 69.6364 464.25 70L465.75 52.8H465.55L462.35 57.2C458.15 63 455.85 64.5 447.05 64.5C443.639 64.5765 440.228 64.3758 436.85 63.9V15.2C436.85 7.7 436.85 6 441.05 3.5L444.85 1.4V1.2H418.75V1.4ZM330.75 34.3C330.75 17.4 341.45 5.2 357.75 5.2C373.15 5.2 384.55 18.7 384.55 36.4C384.55 53.3 374.05 65.5 357.75 65.5C342.35 65.5 330.75 52.1 330.75 34.3ZM319.95 36.3C319.95 55.4 337.75 70.7 357.75 70.7C377.75 70.7 395.55 54.7 395.55 34.4C395.55 15.3 377.75 0 357.75 0C337.75 0 319.95 16 319.95 36.3ZM251.35 69.5H279.45V69.3L275.65 67.3C269.75 64.2 269.45 62.4 269.45 55.3V35.7H280.55C285.25 35.7 287.95 36.4 289.25 38.5L290.45 40.3H290.65L292.15 25H291.95L290.25 27.1C288.45 29.5 286.35 30.7 281.55 30.7H269.55V6.7L280.15 6.2C286.75 5.9 288.75 7 291.15 11.7L293.15 15.9H293.45L294.95 0.7C292.299 1.06245 289.625 1.22956 286.95 1.2H251.45V1.4L255.25 3.5C259.55 6 259.55 7.7 259.55 15.2V55.5C259.55 63 259.55 64.7 255.25 67.2L251.45 69.3L251.35 69.5ZM148.25 69.5H171.95V69.3L167.45 66.7C163.55 64.4 163.25 62.5 163.25 56.9V20.3L213.65 70.5H213.85V13.8C213.85 8.2 214.15 6.5 218.05 4.1L222.75 1.4V1.2H198.75V1.4L203.45 4.1C207.45 6.5 207.75 8.2 207.75 13.8V50.4L157.55 0.2H157.35V56.9C157.35 62.5 157.05 64.2 153.05 66.6L148.35 69.3L148.25 69.5ZM92.75 69.5H118.85V69.3L115.05 67.2C110.75 64.7 110.75 63 110.75 55.5V15.2C110.75 7.7 110.75 6 115.05 3.5L118.85 1.4V1.2H92.85V1.4L96.65 3.5C100.85 6 100.85 7.7 100.85 15.2V55.5C100.85 63 100.85 64.7 96.65 67.2L92.85 69.3L92.75 69.5ZM0.349976 69.5H26.45V69.3L22.65 67.2C18.45 64.7 18.45 63 18.45 55.5V36.1L43.75 62.4C50.35 69 54.85 71 60.85 71C64.2526 71.0088 67.5856 70.0367 70.45 68.2V68C65.25 67.2 59.55 64.3 53.75 58.5L26.75 31.2L50.75 10.2C54.05 7.2 57.15 5.5 62.35 2.9L65.55 1.4V1.2H42.55V1.4L44.55 3.2C46.95 5.5 47.35 6.9 44.85 9.2L18.35 32.4V15.2C18.35 7.7 18.35 6 22.55 3.5L26.35 1.4V1.2H0.349976V1.4L4.14998 3.5C8.34998 6 8.34998 7.7 8.34998 15.2V55.5C8.34998 63 8.34998 64.7 4.04998 67.2L0.349976 69.3V69.5Z" fill="black"/>
</g>
<defs>
<clipPath id="clip0_2_25">
<rect width="561.3" height="75.4" fill="white" transform="translate(0.349976)"/>
</clipPath>
</defs>
</svg>
