<svg width="24" height="20" viewBox="0 0 24 20" fill="none" xmlns="http://www.w3.org/2000/svg">
<path d="M23.8621 2.54561C23.7025 2.37113 23.4457 2.32579 23.236 2.43501C23.0205 2.53294 22.7975 2.61355 22.5692 2.67606C22.9253 2.22038 23.1942 1.70282 23.3623 1.14941C23.4363 0.870944 23.2705 0.58519 22.992 0.511183C22.8433 0.471661 22.6848 0.499786 22.5588 0.588027C21.7655 1.01734 20.9222 1.34717 20.0481 1.56997C18.2488 -0.128414 15.5078 -0.340113 13.4689 1.06181C11.8983 2.12372 11.0337 3.95907 11.215 5.84621C7.8104 5.5561 4.67801 3.86902 2.56229 1.18595C2.45361 1.05447 2.28916 0.982076 2.11879 0.990832C1.94603 1.0012 1.7897 1.09658 1.70141 1.24543C0.983355 2.41921 0.775325 3.83512 1.1254 5.16582C1.30491 5.84954 1.61263 6.49295 2.03221 7.06187C1.84321 6.96932 1.66536 6.85555 1.50214 6.72275C1.27835 6.54123 0.949801 6.57547 0.768233 6.79925C0.692905 6.89214 0.65172 7.00806 0.651671 7.12766C0.682682 9.05814 1.74274 10.825 3.43154 11.7608C3.2037 11.7328 2.97879 11.6846 2.75951 11.6168C2.48359 11.5338 2.1926 11.6901 2.1096 11.9661C2.0734 12.0864 2.08186 12.2159 2.13342 12.3305C2.86639 13.9724 4.33175 15.1716 6.08619 15.5653C4.41466 16.5084 2.4899 16.9046 0.581773 16.6986C0.334367 16.667 0.099972 16.8174 0.0255741 17.0554C-0.0511227 17.2917 0.0492484 17.5491 0.265594 17.6711C2.60196 19.0593 5.25979 19.8145 7.977 19.8625C10.5838 19.8529 13.1298 19.0743 15.2961 17.6242C19.4314 14.8798 22.0089 9.95238 21.6499 5.54363C22.5341 4.88912 23.3012 4.08967 23.9185 3.17909C24.0454 2.97952 24.0222 2.71959 23.8621 2.54561Z" fill="#03A9F4"/>
</svg>
